<?xml version="1.0" encoding="UTF-8" standalone="no"?>
<svg
   version="1.1"
   width="180"
   height="50"
   viewBox="0 0 180 50"
   id="svg24"
   sodipodi:docname="CjA9K9UN.svg"
   inkscape:version="1.3 (0e150ed6c4, 2023-07-21)"
   xmlns:inkscape="http://www.inkscape.org/namespaces/inkscape"
   xmlns:sodipodi="http://sodipodi.sourceforge.net/DTD/sodipodi-0.dtd"
   xmlns="http://www.w3.org/2000/svg"
   xmlns:svg="http://www.w3.org/2000/svg">
  <sodipodi:namedview
     id="namedview24"
     pagecolor="#ffffff"
     bordercolor="#000000"
     borderopacity="0.25"
     inkscape:showpageshadow="2"
     inkscape:pageopacity="0.0"
     inkscape:pagecheckerboard="0"
     inkscape:deskcolor="#d1d1d1"
     inkscape:zoom="6.3611111"
     inkscape:cx="90"
     inkscape:cy="25.074236"
     inkscape:window-width="1837"
     inkscape:window-height="1051"
     inkscape:window-x="-9"
     inkscape:window-y="-9"
     inkscape:window-maximized="1"
     inkscape:current-layer="svg24" />
  <defs
     id="defs1">
    <style
       id="style1">    &#10;            .box-flap { fill: #bea692; }&#10;            .box-light { fill: #8b7460; }&#10;            .box-medium { fill: #786453; }&#10;            .box-dark, .eye-brows { fill: #5d463a; }&#10;            .eye { fill: #fff; }&#10;            .iris { fill: #00b7f1; }&#10;            .logo path { fill: #3f55fe; }&#10;            .outline, .pupil { fill: #000; }&#10;            .skin { fill: #efb8a9; }&#10;            .tape { fill: #e0bb7f; }&#10;        </style>
  </defs>
  <g
     class="logo"
     id="g13">
    <path
       d="M97.3,42.29c-.79,2.86,3.74,1.99,3.69-1.18,0,0,.19-1.54.19-1.54h-.17c-2.83,2.61-8.14,2.02-8.18-3.61-.58-7.14,7.59-10.8,10.55-6.12h.17l.96-1.82h3.55l-2.31,13.08c.72,7.39-16.13,8.72-12.92,1.1l4.46.08ZM101.68,36.75l.85-4.38c-4.22-5.83-7.36,9.67-.85,4.38Z"
       id="path1" />
    <path
       d="M107.66,36.28c-.52-6.89,6.91-11.45,10.36-6.47h.17l.96-1.79h3.64l-1.6,9.15c-.39,1.12.44,1.61,1.43,1.07l-.44,3.11c-1.75.52-5.73,1.04-5.76-1.49h-.14c-2.54,2.96-8.84,2.91-8.62-3.58ZM117.19,32.21c-3.8-5.58-6.9,10.3-.91,5.21,0,0,.91-5.21.91-5.21Z"
       id="path2" />
    <path
       d="M155.37,27.74c5.29-.09,7.14,3.72,5.34,7.49h-8.54c-1.29,3.29,3.37,4.8,3.86,1.54l4.44.03c0,3.47-3,4.99-6.78,4.99-10.27.29-7.34-14.77,1.68-14.05ZM156.83,32.95c1-3.19-3.84-3.11-4.24,0h4.24Z"
       id="path4" />
    <path
       d="M165.78,37.05c-1.27,2.26,3.88,2.72,3.83.74-1.02-2.39-7.41-.93-7.19-5.18-1.1-6.15,14.96-6.67,12.59-.25l-4.24.03c1.21-2.19-3.69-2.45-3.58-.61.87,2.36,7.48.8,7.38,5.12,1.31,6.07-15.42,6.73-13.14.16l4.35-.03Z"
       id="path5" />
    <path
       d="M123.08,22.48c.27,0,.59-.06.86-.15l-.62,3.48c-5.8,2.01-5.81-2.45-7.2-5.84h-1.39l-1.03,5.96h-5.22l3.75-21.25h5.22l-2.13,11.98,1.12-.12c.62-.59,3.13-4.58,3.72-5.08h5.49l-.12.59c-.62.53-3.96,5.2-4.84,6.17.58.47.97,4.02,2.39,4.25Z"
       id="path9" />
    <path
       d="M128.1,4.68h5.19l-1.48,8.21h.15c2.75-3.07,8.59-2.17,8.53,3.93.19,8.78-7.56,11.9-11.16,7.41h-.15l-1,1.71h-3.9l3.81-21.25ZM130.28,21.62c2.88,4.62,7.6-6.04,3.04-6.82-2.78-.32-2.55,5.25-3.04,6.82Z"
       id="path10" />
    <path
       d="M149.35,11.18c11.33-.34,7.77,15.85-1.36,15.05-11.28.35-7.69-15.85,1.36-15.05ZM151.03,17.11c-.68-4.81-5.31-1.61-4.72,3.22.69,4.8,5.29,1.63,4.72-3.22Z"
       id="path11" />
    <path
       d="M164.07,13.95c.27.86.5,1.65.65,2.36h.12c.73-1.54,2.25-3.42,3.22-4.84h5.55l-.09.5-5.46,6.55c.75,1.1,1.69,5.05,3.69,3.75l-.62,3.54c-4.54,1.53-6.08-.84-6.73-4.96h-.15c-.72,1.61-2.35,3.63-3.34,5.08h-5.55l.09-.47,5.58-6.82c-.74-1.19-1.57-4.78-3.63-3.51l.65-3.54c2.42-.76,5.74-.75,6.02,2.36Z"
       id="path12" />
  </g>
  <path
     class="box-light"
     d="M10.34,31.99c.15,1.59.87,6.88.31,8.36.68.16,19.44,9.44,19.82,8.67l.43.5c-.04-1.11-.65-4.88.31-5.76-1.15-1.39-.3-15.52-.37-17.4l-12.32,9.17-8.17-3.53Z M30.72,26.79c.08,1.97-.64,15.48.5,16.97l7.06,2.35,12.45-5.95.19-8.17-8.55,3.34c-.9-1.13-3.13-2.68-4.46-3.22,0,0-6.56-6.25-6.56-6.25l-.62.93Z"
     id="path14" />
  <path
     class="eye"
     d="M23.41,19.85c-.46,1.89,3.67,1.68,5.14,1.42l.25-.43c-.55-.4-1.5-1.61-1.89-2.17-.68-.33-1.86-.27-2.57-.06l-.93,1.24Z M35.39,21.55c1.08.15,2.74.26,3.76.34,3.29-.71-.3-3.36-1.98-2.48-.21.17-1.02,1.11-1.24,1.3-.28.2-1.09.54-.54.83Z"
     id="path16" />
  <path
     class="tape"
     d="M16.35,39.86l.06,3.22,6.75,3.22-.06-3.53-6.75-2.91Z"
     id="path18" />
  <path
     class="box-dark"
     d="M10.9,19.36l6.13,2.11c-.63-1.14-.98-3.73-.99-5.02l-5.51,1.49.37,1.42Z M43.23,17.44l-.62,4.4,7.06-2.6-6.44-1.8Z"
     id="path19" />
  <path
     class="box-medium"
     d="M31.21,43.76c-.86.81-.6,4.46-.62,5.51l5.14-.5,2.54-2.66-7.06-2.35Z"
     id="path20" />
  <path
     class="box-flap"
     d="M.81,24.62l7.56,6.94,10.09,4.4,12.14-9.66c-.07-.48-19.44-6.7-19.69-6.94l-5.26,3.84-4.15.74-.68.68Z M31.34,25.86l6.87,6.69,2.23.93,1.92,1.86,19.07-7.86-.31-.87c-1.26-1.25-4.08-3.14-5.76-3.72,0,0-5.2-3.72-5.2-3.72l-18.95,6.38.12.31Z"
     id="path21" />
</svg>
